<svg width="167" height="166" viewBox="0 0 167 166" fill="none" xmlns="http://www.w3.org/2000/svg">
<g filter="url(#filter0_f_85_4)">
<rect x="44" y="44" width="79" height="78" rx="16" fill="#2295FF" fill-opacity="0.47"/>
</g>
<rect x="40" y="40" width="79" height="78" rx="16" fill="url(#paint0_linear_85_4)"/>
<path d="M79.003 67L79.4323 67.0072C85.3287 67.2032 90.6246 71.3514 93.6953 78.0785L93.9042 78.5486C94.0304 78.8326 94.032 79.156 93.9086 79.4412C90.8061 86.6154 85.2084 91 78.997 91L78.5677 90.9928C72.6632 90.7965 67.3696 86.6397 64.3064 79.9252L64.0914 79.4412C63.9695 79.1595 63.9695 78.8405 64.0914 78.5588C67.1939 71.3846 72.7916 67 79.003 67ZM79.0135 69.2341C74.0372 69.2354 69.4168 72.6597 66.5899 78.4993L66.355 78.9987L66.6087 79.5395C69.2896 85.0516 73.5741 88.4081 78.2209 88.7372L78.6204 88.758L79.006 88.7632L79.3883 88.7574C84.3354 88.5779 88.8981 85.0007 91.6296 79.0347L91.6435 78.9987C88.9788 73.1583 84.5682 69.6023 79.7724 69.2627L79.3719 69.2418L79.0135 69.2341ZM78.9993 73.1702C82.24 73.1702 84.8673 75.7799 84.8673 79.0003C84.8673 82.2195 82.2397 84.8289 78.9993 84.8289C75.7589 84.8289 73.1327 82.2197 73.1327 79.0003C73.1327 75.7797 75.7586 73.1702 78.9993 73.1702ZM78.9993 75.4057C77.0014 75.4057 75.3827 77.0142 75.3827 79.0003C75.3827 80.9851 77.0016 82.5934 78.9993 82.5934C80.9973 82.5934 82.6173 80.9847 82.6173 79.0003C82.6173 77.0146 80.9975 75.4057 78.9993 75.4057Z" fill="white"/>
<defs>
<filter id="filter0_f_85_4" x="0" y="0" width="167" height="166" filterUnits="userSpaceOnUse" color-interpolation-filters="sRGB">
<feFlood flood-opacity="0" result="BackgroundImageFix"/>
<feBlend mode="normal" in="SourceGraphic" in2="BackgroundImageFix" result="shape"/>
<feGaussianBlur stdDeviation="22" result="effect1_foregroundBlur_85_4"/>
</filter>
<linearGradient id="paint0_linear_85_4" x1="79.5" y1="40" x2="79.5" y2="118" gradientUnits="userSpaceOnUse">
<stop stop-color="#2295FF" stop-opacity="0.39"/>
<stop offset="1" stop-color="#2295FF"/>
</linearGradient>
</defs>
</svg>
