<svg width="167" height="166" viewBox="0 0 167 166" fill="none" xmlns="http://www.w3.org/2000/svg">
<g filter="url(#filter0_f_85_5)">
<rect x="44" y="44" width="79" height="78" rx="16" fill="#ED1864" fill-opacity="0.33"/>
</g>
<rect x="41" y="41" width="79" height="78" rx="16" fill="url(#paint0_linear_85_5)"/>
<path d="M83.7452 66.2202C84.3473 66.2202 84.8354 66.7068 84.8354 67.307C84.8354 67.8572 84.4252 68.3119 83.8931 68.3838L83.7452 68.3938H73.1814C69.6135 68.3938 67.3182 70.7492 67.1863 74.4234L67.1803 74.761V86.4725C67.1803 90.2436 69.3365 92.68 72.8576 92.8201L73.1814 92.8265H85.6877C89.2587 92.8265 91.5511 90.4802 91.6828 86.8098L91.6888 86.4725V76.273C91.6888 75.6728 92.1769 75.1862 92.779 75.1862C93.3309 75.1862 93.787 75.5951 93.8592 76.1255L93.8691 76.273V86.4725C93.8691 91.3852 90.7581 94.8365 86.0283 94.9944L85.6877 95H73.1814C68.3403 95 65.1509 91.6816 65.0052 86.8222L65 86.4725V74.761C65 69.8459 68.1128 66.3842 72.841 66.2259L73.1814 66.2202H83.7452ZM86.821 76.1169C87.2537 76.4511 87.3648 77.0456 87.1044 77.5074L87.0151 77.6416L82.7576 83.1193C82.4208 83.5527 81.8208 83.6622 81.3571 83.3986L81.2225 83.3083L77.1252 80.1002L73.4467 84.8672C73.113 85.2996 72.517 85.4124 72.0529 85.1544L71.918 85.0658C71.4842 84.7331 71.371 84.1389 71.6299 83.6762L71.7187 83.5418L76.0693 77.9049C76.4055 77.4693 77.0069 77.3585 77.4718 77.6224L77.6067 77.7129L81.7052 80.9232L85.2916 76.3103C85.6604 75.8359 86.3451 75.7493 86.821 76.1169ZM91.1159 65C93.261 65 95 66.7336 95 68.8721C95 71.0105 93.261 72.7441 91.1159 72.7441C88.9708 72.7441 87.2318 71.0105 87.2318 68.8721C87.2318 66.7336 88.9708 65 91.1159 65ZM91.1159 67.1735C90.1749 67.1735 89.4121 67.934 89.4121 68.8721C89.4121 69.8101 90.1749 70.5706 91.1159 70.5706C92.0569 70.5706 92.8197 69.8101 92.8197 68.8721C92.8197 67.934 92.0569 67.1735 91.1159 67.1735Z" fill="white"/>
<defs>
<filter id="filter0_f_85_5" x="0" y="0" width="167" height="166" filterUnits="userSpaceOnUse" color-interpolation-filters="sRGB">
<feFlood flood-opacity="0" result="BackgroundImageFix"/>
<feBlend mode="normal" in="SourceGraphic" in2="BackgroundImageFix" result="shape"/>
<feGaussianBlur stdDeviation="22" result="effect1_foregroundBlur_85_5"/>
</filter>
<linearGradient id="paint0_linear_85_5" x1="80.5" y1="41" x2="80.5" y2="119" gradientUnits="userSpaceOnUse">
<stop stop-color="#ED1864" stop-opacity="0.31"/>
<stop offset="1" stop-color="#ED1864"/>
</linearGradient>
</defs>
</svg>
