<svg width="207" height="206" viewBox="0 0 207 206" fill="none" xmlns="http://www.w3.org/2000/svg">
<g filter="url(#filter0_f_85_2)">
<rect x="64" y="64" width="79" height="78" rx="16" fill="#FFC805" fill-opacity="0.36"/>
</g>
<rect x="60" y="61" width="79" height="78" rx="16" fill="url(#paint0_linear_85_2)"/>
<path d="M99 85C107.284 85 114 91.7157 114 100C114 108.284 107.284 115 99 115C90.7157 115 84 108.284 84 100C84 91.7157 90.7157 85 99 85ZM99 87.1716C91.9151 87.1716 86.1716 92.9151 86.1716 100C86.1716 107.085 91.9151 112.828 99 112.828C106.085 112.828 111.828 107.085 111.828 100C111.828 92.9151 106.085 87.1716 99 87.1716ZM103.513 94.1269C104.349 93.8652 105.135 94.6511 104.873 95.4875L102.567 102.855C102.461 103.195 102.195 103.461 101.855 103.567L94.4875 105.873C93.6511 106.135 92.8652 105.349 93.1269 104.513L95.4327 97.1446C95.539 96.805 95.805 96.539 96.1446 96.4327C96.4843 96.3264 103.513 94.1269 103.513 94.1269ZM102.181 96.8178L97.3351 98.3351L95.8178 103.181L100.663 101.663L102.181 96.8178Z" fill="white"/>
<defs>
<filter id="filter0_f_85_2" x="0" y="0" width="207" height="206" filterUnits="userSpaceOnUse" color-interpolation-filters="sRGB">
<feFlood flood-opacity="0" result="BackgroundImageFix"/>
<feBlend mode="normal" in="SourceGraphic" in2="BackgroundImageFix" result="shape"/>
<feGaussianBlur stdDeviation="32" result="effect1_foregroundBlur_85_2"/>
</filter>
<linearGradient id="paint0_linear_85_2" x1="99.5" y1="61" x2="99.5" y2="139" gradientUnits="userSpaceOnUse">
<stop stop-color="#FFC805" stop-opacity="0.31"/>
<stop offset="1" stop-color="#FFC805"/>
</linearGradient>
</defs>
</svg>
