<svg width="167" height="166" viewBox="0 0 167 166" fill="none" xmlns="http://www.w3.org/2000/svg">
<g filter="url(#filter0_f_85_3)">
<rect x="44" y="44" width="79" height="78" rx="16" fill="#16BD31" fill-opacity="0.24"/>
</g>
<rect x="39" y="41" width="79" height="78" rx="16" fill="url(#paint0_linear_85_3)"/>
<path d="M87.356 83.3587C90.4689 83.3587 92.9995 85.8566 92.9995 88.9294C92.9995 92.0004 90.4689 94.5 87.356 94.5C84.2432 94.5 81.7126 92.0004 81.7126 88.9294C81.7126 85.8566 84.2432 83.3587 87.356 83.3587ZM87.356 85.9716C85.7025 85.9716 84.3596 87.2972 84.3596 88.9294C84.3596 90.5598 85.7025 91.8871 87.356 91.8871C89.0095 91.8871 90.3525 90.5598 90.3525 88.9294C90.3525 87.2972 89.0095 85.9716 87.356 85.9716ZM75.1757 87.6224C75.9063 87.6224 76.4992 88.2077 76.4992 88.9288C76.4992 89.65 75.9063 90.2353 75.1757 90.2353H64.3247C63.5942 90.2353 63.0012 89.65 63.0012 88.9288C63.0012 88.2077 63.5942 87.6224 64.3247 87.6224H75.1757ZM68.6434 66C71.7563 66 74.2869 68.4996 74.2869 71.5706C74.2869 74.6416 71.7563 77.1413 68.6434 77.1413C65.5323 77.1413 63 74.6416 63 71.5706C63 68.4996 65.5323 66 68.6434 66ZM68.6434 68.6129C66.9917 68.6129 65.647 69.9402 65.647 71.5706C65.647 73.2011 66.9917 74.5284 68.6434 74.5284C70.2969 74.5284 71.6398 73.2011 71.6398 71.5706C71.6398 69.9402 70.2969 68.6129 68.6434 68.6129ZM91.6765 70.2646C92.4071 70.2646 93 70.8498 93 71.571C93 72.2921 92.4071 72.8774 91.6765 72.8774H80.8237C80.0932 72.8774 79.5002 72.2921 79.5002 71.571C79.5002 70.8498 80.0932 70.2646 80.8237 70.2646H91.6765Z" fill="white"/>
<defs>
<filter id="filter0_f_85_3" x="0" y="0" width="167" height="166" filterUnits="userSpaceOnUse" color-interpolation-filters="sRGB">
<feFlood flood-opacity="0" result="BackgroundImageFix"/>
<feBlend mode="normal" in="SourceGraphic" in2="BackgroundImageFix" result="shape"/>
<feGaussianBlur stdDeviation="22" result="effect1_foregroundBlur_85_3"/>
</filter>
<linearGradient id="paint0_linear_85_3" x1="78.5" y1="41" x2="78.5" y2="119" gradientUnits="userSpaceOnUse">
<stop stop-color="#16BD31" stop-opacity="0.29"/>
<stop offset="1" stop-color="#16BD31"/>
</linearGradient>
</defs>
</svg>
