<svg width="73" height="36" viewBox="0 0 73 36" fill="none" xmlns="http://www.w3.org/2000/svg">
<path d="M0.936 17.64C0.936 20.412 1.764 22.752 3.456 24.66C5.148 26.532 7.272 27.468 9.792 27.468C11.736 27.468 13.464 26.892 14.976 25.704V27H20.34V8.28H14.976V9.54C13.428 8.388 11.7 7.812 9.792 7.812C7.272 7.812 5.148 8.748 3.456 10.62C1.764 12.492 0.936 14.832 0.936 17.64ZM10.728 13.14C11.88 13.14 12.852 13.572 13.68 14.436C14.508 15.3 14.904 16.344 14.904 17.604C14.904 20.196 13.032 22.14 10.728 22.14C8.388 22.14 6.552 20.196 6.552 17.604C6.552 15.12 8.388 13.14 10.728 13.14ZM23.3792 27H28.7792V16.416C28.7792 14.364 30.2552 12.816 32.2352 12.816C34.2152 12.816 35.6552 14.364 35.6552 16.416V27H41.0552V14.976C41.0552 12.924 40.3712 11.232 38.9672 9.864C37.5992 8.496 35.9072 7.812 33.8912 7.812C31.7312 7.812 30.0392 8.604 28.7792 10.188V8.28H23.3792V27ZM43.5102 17.64C43.5102 20.412 44.3382 22.752 46.0302 24.66C47.7222 26.532 49.8462 27.468 52.3662 27.468C54.3102 27.468 56.0382 26.892 57.5502 25.704V27H62.9142V-2.14577e-06H57.5502V9.54C56.0022 8.388 54.2742 7.812 52.3662 7.812C49.8462 7.812 47.7222 8.748 46.0302 10.62C44.3382 12.492 43.5102 14.832 43.5102 17.64ZM53.3022 13.14C54.4542 13.14 55.4262 13.572 56.2542 14.436C57.0822 15.3 57.4782 16.344 57.4782 17.604C57.4782 20.196 55.6062 22.14 53.3022 22.14C50.9622 22.14 49.1262 20.196 49.1262 17.604C49.1262 15.12 50.9622 13.14 53.3022 13.14ZM68.4734 21.348C66.7454 21.348 65.4494 22.644 65.4494 24.408C65.4494 26.172 66.7454 27.468 68.4734 27.468C70.2374 27.468 71.5694 26.172 71.5694 24.408C71.5694 22.644 70.2374 21.348 68.4734 21.348Z" fill="white"/>
<rect x="2" y="31" width="70" height="5" fill="#FFB905"/>
</svg>
